<svg width="20" height="23" viewBox="0 0 20 23" fill="none" xmlns="http://www.w3.org/2000/svg">
<path d="M10 0.083313C10.7113 0.083313 11.4157 0.223419 12.0729 0.495632C12.73 0.767845 13.3272 1.16683 13.8302 1.66982C14.3331 2.1728 14.7321 2.76993 15.0043 3.42711C15.2766 4.08429 15.4167 4.78865 15.4167 5.49998V7.66665H18.6667C18.954 7.66665 19.2295 7.78078 19.4327 7.98395C19.6359 8.18711 19.75 8.46266 19.75 8.74998V21.75C19.75 22.0373 19.6359 22.3128 19.4327 22.516C19.2295 22.7192 18.954 22.8333 18.6667 22.8333H1.33333C1.04602 22.8333 0.770465 22.7192 0.567301 22.516C0.364137 22.3128 0.25 22.0373 0.25 21.75V8.74998C0.25 8.46266 0.364137 8.18711 0.567301 7.98395C0.770465 7.78078 1.04602 7.66665 1.33333 7.66665H4.58333V5.49998C4.58333 4.06339 5.15402 2.68564 6.16984 1.66982C7.18566 0.653996 8.56341 0.083313 10 0.083313ZM15.4167 10.9166H13.25V12C13.2503 12.2761 13.356 12.5417 13.5456 12.7425C13.7351 12.9432 13.9942 13.0641 14.2698 13.0802C14.5455 13.0964 14.8169 13.0068 15.0287 12.8295C15.2404 12.6523 15.3765 12.4009 15.4091 12.1267L15.4167 12V10.9166ZM6.75 10.9166H4.58333V12C4.58364 12.2761 4.68937 12.5417 4.87892 12.7425C5.06847 12.9432 5.32753 13.0641 5.60318 13.0802C5.87882 13.0964 6.15024 13.0068 6.36199 12.8295C6.57373 12.6523 6.7098 12.4009 6.74242 12.1267L6.75 12V10.9166ZM10 2.24998C9.17102 2.24993 8.37336 2.56667 7.77022 3.13537C7.16708 3.70408 6.80405 4.48176 6.75542 5.30931L6.75 5.49998V7.66665H13.25V5.49998C13.25 4.671 12.9333 3.87334 12.3646 3.2702C11.7959 2.66706 11.0182 2.30403 10.1907 2.2554L10 2.24998Z" fill="#3F4752"/>
</svg>
