<svg width="25" height="22" viewBox="0 0 25 22" fill="none" xmlns="http://www.w3.org/2000/svg">
<path d="M3.65717 16.4969L3.72506 16.2232L3.52592 16.0235C1.93651 14.4296 1 12.4239 1 10.25C1 5.23223 6.04598 1 12.5 1C18.954 1 24 5.23223 24 10.25C24 15.2678 18.954 19.5 12.5 19.5C10.7618 19.5 9.11977 19.1786 7.64166 18.6226L7.37602 18.5227L7.15405 18.6996C6.07894 19.5562 3.9641 20.9092 1.15792 20.9956C1.36686 20.7529 1.71391 20.328 2.08876 19.782C2.67 18.9354 3.34353 17.7615 3.65717 16.4969ZM0.964397 21.2128C0.965487 21.2116 0.966668 21.2104 0.967939 21.209C0.966806 21.2103 0.965642 21.2115 0.964447 21.2128L0.964397 21.2128Z" stroke="#294F56"/>
</svg>
