<svg width="40" height="40" viewBox="0 0 40 40" fill="none" xmlns="http://www.w3.org/2000/svg">
<path d="M4.40476 21.882V35.882H27.8333V21.882H4.40476ZM4.40476 17.882H27.8333C28.8689 17.882 29.8621 18.3034 30.5944 19.0536C31.3267 19.8037 31.7381 20.8211 31.7381 21.882V35.882C31.7381 36.9429 31.3267 37.9603 30.5944 38.7104C29.8621 39.4606 28.8689 39.882 27.8333 39.882H4.40476C3.36915 39.882 2.37596 39.4606 1.64368 38.7104C0.911393 37.9603 0.5 36.9429 0.5 35.882V21.882C0.5 20.8211 0.911393 19.8037 1.64368 19.0536C2.37596 18.3034 3.36915 17.882 4.40476 17.882ZM21.9996 13.882H18.0949V4C18.0949 2.93913 18.5063 1.92172 19.2385 1.17157C19.9708 0.421427 20.964 0 21.9996 0L35.6663 0C36.7019 0 37.6951 0.421427 38.4274 1.17157C39.1597 1.92172 39.571 2.93913 39.571 4V28C39.571 29.0609 39.1597 30.0783 38.4274 30.8284C37.6951 31.5786 36.7019 32 35.6663 32H35.6429V28H35.6663V4H21.9996V13.882Z" fill="#3F4752"/>
</svg>
