<svg width="24" height="24" viewBox="0 0 24 24" fill="none" xmlns="http://www.w3.org/2000/svg">
<path fill-rule="evenodd" clip-rule="evenodd" d="M7.4285 4.57141C7.73161 4.57141 8.0223 4.69182 8.23662 4.90615C8.45095 5.12047 8.57136 5.41116 8.57136 5.71427V7.99998C8.57136 8.30309 8.45095 8.59378 8.23662 8.8081C8.0223 9.02243 7.73161 9.14284 7.4285 9.14284C7.1254 9.14284 6.83471 9.02243 6.62038 8.8081C6.40605 8.59378 6.28564 8.30309 6.28564 7.99998V5.71427C6.28564 5.41116 6.40605 5.12047 6.62038 4.90615C6.83471 4.69182 7.1254 4.57141 7.4285 4.57141V4.57141Z" stroke="#294F56" stroke-linecap="round" stroke-linejoin="round"/>
<path d="M21.143 6.85712H8.57153" stroke="#294F56" stroke-linecap="round" stroke-linejoin="round"/>
<path d="M6.28575 6.85712H2.85718" stroke="#294F56" stroke-linecap="round" stroke-linejoin="round"/>
<path fill-rule="evenodd" clip-rule="evenodd" d="M7.4285 16C7.73161 16 8.0223 16.1204 8.23662 16.3347C8.45095 16.5491 8.57136 16.8398 8.57136 17.1429V19.4286C8.57136 19.7317 8.45095 20.0224 8.23662 20.2367C8.0223 20.451 7.73161 20.5714 7.4285 20.5714C7.1254 20.5714 6.83471 20.451 6.62038 20.2367C6.40605 20.0224 6.28564 19.7317 6.28564 19.4286V17.1429C6.28564 16.8398 6.40605 16.5491 6.62038 16.3347C6.83471 16.1204 7.1254 16 7.4285 16Z" stroke="#294F56" stroke-linecap="round" stroke-linejoin="round"/>
<path d="M21.143 18.2857H8.57153" stroke="#294F56" stroke-linecap="round" stroke-linejoin="round"/>
<path d="M6.28575 18.2857H2.85718" stroke="#294F56" stroke-linecap="round" stroke-linejoin="round"/>
<path fill-rule="evenodd" clip-rule="evenodd" d="M16.5716 10.2857C16.8747 10.2857 17.1654 10.4061 17.3797 10.6204C17.594 10.8348 17.7144 11.1255 17.7144 11.4286V13.7143C17.7144 14.0174 17.594 14.3081 17.3797 14.5224C17.1654 14.7367 16.8747 14.8571 16.5716 14.8571C16.2685 14.8571 15.9778 14.7367 15.7634 14.5224C15.5491 14.3081 15.4287 14.0174 15.4287 13.7143V11.4286C15.4287 11.1255 15.5491 10.8348 15.7634 10.6204C15.9778 10.4061 16.2685 10.2857 16.5716 10.2857V10.2857Z" stroke="#294F56" stroke-linecap="round" stroke-linejoin="round"/>
<path d="M15.4286 12.5714H2.85718" stroke="#294F56" stroke-linecap="round" stroke-linejoin="round"/>
<path d="M21.1429 12.5714H17.7144" stroke="#294F56" stroke-linecap="round" stroke-linejoin="round"/>
</svg>
