<svg width="16" height="17" viewBox="0 0 16 17" fill="none" xmlns="http://www.w3.org/2000/svg">
<path d="M8 1.41667C6.23189 1.41667 4.5362 2.16294 3.28595 3.49133C2.03571 4.81971 1.33333 6.62138 1.33333 8.5V9.91667H2.66667C3.02029 9.91667 3.35943 10.0659 3.60948 10.3316C3.85952 10.5973 4 10.9576 4 11.3333V15.5833C4 15.9591 3.85952 16.3194 3.60948 16.5851C3.35943 16.8507 3.02029 17 2.66667 17H1.33333C0.979711 17 0.640573 16.8507 0.390524 16.5851C0.140476 16.3194 0 15.9591 0 15.5833V8.5C-1.56548e-08 7.38376 0.206926 6.27846 0.608964 5.24719C1.011 4.21592 1.60028 3.27889 2.34315 2.48959C3.08601 1.70029 3.96793 1.07419 4.93853 0.647024C5.90914 0.219859 6.94943 0 8 0C9.05058 0 10.0909 0.219859 11.0615 0.647024C12.0321 1.07419 12.914 1.70029 13.6569 2.48959C14.3997 3.27889 14.989 4.21592 15.391 5.24719C15.7931 6.27846 16 7.38376 16 8.5V15.5833C16 15.9591 15.8595 16.3194 15.6095 16.5851C15.3594 16.8507 15.0203 17 14.6667 17H13.3333C12.9797 17 12.6406 16.8507 12.3905 16.5851C12.1405 16.3194 12 15.9591 12 15.5833V11.3333C12 10.9576 12.1405 10.5973 12.3905 10.3316C12.6406 10.0659 12.9797 9.91667 13.3333 9.91667H14.6667V8.5C14.6667 6.62138 13.9643 4.81971 12.714 3.49133C11.4638 2.16294 9.76811 1.41667 8 1.41667Z" fill="#294F56"/>
</svg>
