<svg width="26" height="26" viewBox="0 0 26 26" fill="none" xmlns="http://www.w3.org/2000/svg">
<path d="M24.6667 22.3333V13.203C24.6667 12.5678 24.5371 11.9392 24.2857 11.3559C24.0344 10.7725 23.6666 10.2466 23.2048 9.81034L14.603 1.68101C14.1698 1.27143 13.5962 1.04321 13 1.04321C12.4038 1.04321 11.8302 1.27143 11.397 1.68101L2.79516 9.81034C2.33342 10.2466 1.96561 10.7725 1.71424 11.3559C1.46288 11.9392 1.33326 12.5678 1.33333 13.203V22.3333C1.33333 22.9522 1.57916 23.5457 2.01675 23.9833C2.45433 24.4208 3.04782 24.6667 3.66666 24.6667H22.3333C22.9522 24.6667 23.5457 24.4208 23.9832 23.9833C24.4208 23.5457 24.6667 22.9522 24.6667 22.3333Z" stroke="white" stroke-width="2" stroke-linecap="round" stroke-linejoin="round"/>
</svg>
