<svg width="20" height="26" viewBox="0 0 20 26" fill="none" xmlns="http://www.w3.org/2000/svg">
<path d="M18.5555 5.22221H3.66888C3.47039 5.2194 3.27453 5.17641 3.0931 5.09585C2.91168 5.01528 2.74846 4.89881 2.61327 4.75344C2.47808 4.60808 2.37374 4.43685 2.30653 4.25007C2.23932 4.06328 2.21064 3.86482 2.22221 3.66665C2.22124 3.27228 2.3701 2.89227 2.63867 2.60348C2.90724 2.3147 3.27547 2.1387 3.66888 2.1111H18.5555C18.7618 2.1111 18.9597 2.02915 19.1055 1.88329C19.2514 1.73743 19.3333 1.5396 19.3333 1.33332C19.3333 1.12704 19.2514 0.929209 19.1055 0.783348C18.9597 0.637486 18.7618 0.555542 18.5555 0.555542H3.66888C2.86278 0.583773 2.09915 0.923971 1.53905 1.50439C0.978948 2.0848 0.66616 2.86006 0.666654 3.66665C0.65913 3.79358 0.65913 3.92084 0.666654 4.04776C0.65916 4.10976 0.65916 4.17243 0.666654 4.23443V22.3333C0.66616 23.1399 0.978948 23.9152 1.53905 24.4956C2.09915 25.076 2.86278 25.4162 3.66888 25.4444H18.5555C18.7618 25.4444 18.9597 25.3625 19.1055 25.2166C19.2514 25.0708 19.3333 24.8729 19.3333 24.6667V6.19443V6.12443V6.05443C19.3338 5.84283 19.2536 5.639 19.1091 5.4844C18.9646 5.32981 18.7667 5.23605 18.5555 5.22221ZM17.7778 23.8889H3.66888C3.27547 23.8613 2.90724 23.6853 2.63867 23.3965C2.3701 23.1077 2.22124 22.7277 2.22221 22.3333V6.42776C2.66445 6.67173 3.16403 6.79259 3.66888 6.77776H17.7778V23.8889Z" fill="white"/>
</svg>
