<svg width="24" height="24" viewBox="0 0 24 24" fill="none" xmlns="http://www.w3.org/2000/svg">
<path d="M11.25 1.5H12.75V5.25H11.25V1.5Z" fill="#294F56"/>
<path d="M16.2653 6.67493L18.8948 4.04468L19.9553 5.10593L17.3258 7.73543L16.2653 6.67493Z" fill="#294F56"/>
<path d="M18.75 11.25H22.5V12.75H18.75V11.25Z" fill="#294F56"/>
<path d="M16.2653 17.3249L17.3258 16.2644L19.9553 18.8939L18.8948 19.9552L16.2653 17.3249Z" fill="#294F56"/>
<path d="M11.25 18.75H12.75V22.5H11.25V18.75Z" fill="#294F56"/>
<path d="M4.04553 18.8939L6.67503 16.2644L7.73553 17.3257L5.10603 19.9552L4.04553 18.8939Z" fill="#294F56"/>
<path d="M1.5 11.25H5.25V12.75H1.5V11.25Z" fill="#294F56"/>
<path d="M4.04553 5.10593L5.10603 4.04468L7.73553 6.67493L6.67503 7.73543L4.04553 5.10593Z" fill="#294F56"/>
<path d="M12 9C12.5933 9 13.1734 9.17595 13.6667 9.50559C14.1601 9.83524 14.5446 10.3038 14.7716 10.8519C14.9987 11.4001 15.0581 12.0033 14.9424 12.5853C14.8266 13.1672 14.5409 13.7018 14.1213 14.1213C13.7018 14.5409 13.1672 14.8266 12.5853 14.9424C12.0033 15.0581 11.4001 14.9987 10.852 14.7716C10.3038 14.5446 9.83524 14.1601 9.50559 13.6667C9.17595 13.1734 9 12.5933 9 12C9.00099 11.2047 9.31738 10.4422 9.87978 9.87978C10.4422 9.31738 11.2047 9.00099 12 9ZM12 7.5C11.11 7.5 10.24 7.76392 9.49994 8.25839C8.75991 8.75285 8.18314 9.45566 7.84254 10.2779C7.50195 11.1002 7.41283 12.005 7.58647 12.8779C7.7601 13.7508 8.18869 14.5526 8.81802 15.182C9.44736 15.8113 10.2492 16.2399 11.1221 16.4135C11.995 16.5872 12.8998 16.4981 13.7221 16.1575C14.5443 15.8169 15.2471 15.2401 15.7416 14.5001C16.2361 13.76 16.5 12.89 16.5 12C16.5 10.8065 16.0259 9.66193 15.182 8.81802C14.3381 7.97411 13.1935 7.5 12 7.5Z" fill="#294F56"/>
</svg>
