<svg width="21" height="15" viewBox="0 0 21 15" fill="none" xmlns="http://www.w3.org/2000/svg">
<path d="M0.5 1C0.5 0.734784 0.605357 0.48043 0.792893 0.292893C0.98043 0.105357 1.23478 0 1.5 0H19.5C19.7652 0 20.0196 0.105357 20.2071 0.292893C20.3946 0.48043 20.5 0.734784 20.5 1C20.5 1.26522 20.3946 1.51957 20.2071 1.70711C20.0196 1.89464 19.7652 2 19.5 2H1.5C1.23478 2 0.98043 1.89464 0.792893 1.70711C0.605357 1.51957 0.5 1.26522 0.5 1Z" fill="#3F4752"/>
<path d="M0.5 7.03198C0.5 6.76677 0.605357 6.51241 0.792893 6.32488C0.98043 6.13734 1.23478 6.03198 1.5 6.03198H19.5C19.7652 6.03198 20.0196 6.13734 20.2071 6.32488C20.3946 6.51241 20.5 6.76677 20.5 7.03198C20.5 7.2972 20.3946 7.55155 20.2071 7.73909C20.0196 7.92663 19.7652 8.03198 19.5 8.03198H1.5C1.23478 8.03198 0.98043 7.92663 0.792893 7.73909C0.605357 7.55155 0.5 7.2972 0.5 7.03198Z" fill="#3F4752"/>
<path d="M1.5 12.064C1.23478 12.064 0.98043 12.1693 0.792893 12.3569C0.605357 12.5444 0.5 12.7987 0.5 13.064C0.5 13.3292 0.605357 13.5835 0.792893 13.7711C0.98043 13.9586 1.23478 14.064 1.5 14.064H19.5C19.7652 14.064 20.0196 13.9586 20.2071 13.7711C20.3946 13.5835 20.5 13.3292 20.5 13.064C20.5 12.7987 20.3946 12.5444 20.2071 12.3569C20.0196 12.1693 19.7652 12.064 19.5 12.064H1.5Z" fill="#3F4752"/>
</svg>
