<svg width="28" height="22" viewBox="0 0 28 22" fill="none" xmlns="http://www.w3.org/2000/svg">
<path d="M26.25 21.5C26.25 21.5 28 21.5 28 19.75C28 18 26.25 12.75 19.25 12.75C12.25 12.75 10.5 18 10.5 19.75C10.5 21.5 12.25 21.5 12.25 21.5H26.25ZM12.2885 19.75C12.2756 19.7482 12.2627 19.7459 12.25 19.743C12.2517 19.281 12.5423 17.9405 13.58 16.733C14.546 15.6007 16.2435 14.5 19.25 14.5C22.2547 14.5 23.9522 15.6025 24.92 16.733C25.9578 17.9405 26.2465 19.2828 26.25 19.743L26.236 19.7465C26.2279 19.7479 26.2197 19.749 26.2115 19.75H12.2885ZM19.25 9.25C20.1783 9.25 21.0685 8.88125 21.7249 8.22487C22.3813 7.5685 22.75 6.67826 22.75 5.75C22.75 4.82174 22.3813 3.9315 21.7249 3.27513C21.0685 2.61875 20.1783 2.25 19.25 2.25C18.3217 2.25 17.4315 2.61875 16.7751 3.27513C16.1187 3.9315 15.75 4.82174 15.75 5.75C15.75 6.67826 16.1187 7.5685 16.7751 8.22487C17.4315 8.88125 18.3217 9.25 19.25 9.25ZM24.5 5.75C24.5 6.43944 24.3642 7.12213 24.1004 7.75909C23.8365 8.39605 23.4498 8.9748 22.9623 9.46231C22.4748 9.94982 21.896 10.3365 21.2591 10.6004C20.6221 10.8642 19.9394 11 19.25 11C18.5606 11 17.8779 10.8642 17.2409 10.6004C16.604 10.3365 16.0252 9.94982 15.5377 9.46231C15.0502 8.9748 14.6635 8.39605 14.3996 7.75909C14.1358 7.12213 14 6.43944 14 5.75C14 4.35761 14.5531 3.02226 15.5377 2.03769C16.5223 1.05312 17.8576 0.5 19.25 0.5C20.6424 0.5 21.9777 1.05312 22.9623 2.03769C23.9469 3.02226 24.5 4.35761 24.5 5.75ZM12.138 13.24C11.438 13.0196 10.7164 12.8747 9.9855 12.8077C9.57483 12.7687 9.16252 12.7494 8.75 12.75C1.75 12.75 0 18 0 19.75C0 20.9172 0.58275 21.5 1.75 21.5H9.128C8.86857 20.9537 8.73919 20.3547 8.75 19.75C8.75 17.9825 9.40975 16.1765 10.6575 14.668C11.0828 14.1535 11.578 13.6722 12.138 13.24ZM8.61 14.5C7.57427 16.0562 7.01477 17.8807 7 19.75H1.75C1.75 19.295 2.037 17.9475 3.08 16.733C4.03375 15.62 5.691 14.535 8.61 14.5018V14.5ZM2.625 6.625C2.625 5.23261 3.17812 3.89726 4.16269 2.91269C5.14726 1.92812 6.48261 1.375 7.875 1.375C9.26739 1.375 10.6027 1.92812 11.5873 2.91269C12.5719 3.89726 13.125 5.23261 13.125 6.625C13.125 8.01739 12.5719 9.35274 11.5873 10.3373C10.6027 11.3219 9.26739 11.875 7.875 11.875C6.48261 11.875 5.14726 11.3219 4.16269 10.3373C3.17812 9.35274 2.625 8.01739 2.625 6.625ZM7.875 3.125C6.94674 3.125 6.0565 3.49375 5.40013 4.15013C4.74375 4.8065 4.375 5.69674 4.375 6.625C4.375 7.55326 4.74375 8.4435 5.40013 9.09987C6.0565 9.75625 6.94674 10.125 7.875 10.125C8.80326 10.125 9.6935 9.75625 10.3499 9.09987C11.0063 8.4435 11.375 7.55326 11.375 6.625C11.375 5.69674 11.0063 4.8065 10.3499 4.15013C9.6935 3.49375 8.80326 3.125 7.875 3.125Z" fill="white"/>
</svg>
