<svg width="20" height="22" viewBox="0 0 20 22" fill="none" xmlns="http://www.w3.org/2000/svg">
<path d="M18.3959 10.4584C18.5922 10.4584 18.7819 10.5295 18.9299 10.6585C19.0778 10.7876 19.1741 10.9659 19.2008 11.1604L19.2084 11.2709V16.6875C19.2083 18.0116 18.698 19.2847 17.7833 20.2421C16.8687 21.1995 15.6203 21.7675 14.2976 21.828L14.0625 21.8334H5.93752C4.87585 21.8334 3.97344 21.1552 3.63869 20.2084H14.0625L14.2619 20.203C15.125 20.1538 15.94 19.7888 16.5513 19.1774C17.1627 18.5661 17.5277 17.7511 17.5769 16.888L17.5834 16.6875V11.2709C17.5834 11.0554 17.669 10.8487 17.8213 10.6963C17.9737 10.544 18.1804 10.4584 18.3959 10.4584ZM15.6875 8.2917C15.8839 8.29171 16.0736 8.36281 16.2215 8.49187C16.3695 8.62092 16.4657 8.79919 16.4924 8.9937L16.5 9.1042V16.6875C16.5001 17.3052 16.2657 17.8998 15.8442 18.3513C15.4227 18.8027 14.8455 19.0773 14.2294 19.1196L14.0625 19.125H3.22919C2.61155 19.1251 2.01691 18.8907 1.56545 18.4692C1.11399 18.0477 0.839378 17.4706 0.797104 16.8544L0.791687 16.6875V9.1042C0.79175 8.89834 0.869952 8.70018 1.01049 8.54976C1.15103 8.39934 1.34343 8.30787 1.54881 8.29384C1.75419 8.27981 1.95724 8.34426 2.11693 8.47417C2.27662 8.60408 2.38104 8.78976 2.4091 8.9937L2.41669 9.1042V16.6875C2.41669 17.0992 2.72219 17.4394 3.11869 17.4925L3.22919 17.5H14.0625C14.2589 17.5 14.4486 17.4289 14.5965 17.2999C14.7445 17.1708 14.8407 16.9926 14.8674 16.798L14.875 16.6875V9.1042C14.875 8.88871 14.9606 8.68205 15.113 8.52968C15.2654 8.37731 15.472 8.2917 15.6875 8.2917ZM3.73619 4.73404L8.06735 0.405036C8.20492 0.267433 8.38731 0.183769 8.58134 0.169256C8.77538 0.154744 8.96818 0.210346 9.12469 0.325952L9.21569 0.403952L13.5534 4.73404C13.6991 4.87883 13.7846 5.07346 13.7926 5.27875C13.8006 5.48405 13.7306 5.68475 13.5965 5.84047C13.4625 5.99618 13.2745 6.09534 13.0703 6.11799C12.8661 6.14064 12.6609 6.0851 12.496 5.96254L12.405 5.88345L9.45835 2.94329V13.443C9.45835 13.6393 9.38724 13.829 9.25819 13.977C9.12914 14.1249 8.95087 14.2212 8.75635 14.2479L8.64585 14.2555C8.44951 14.2554 8.25982 14.1843 8.11185 14.0553C7.96387 13.9262 7.86764 13.748 7.84094 13.5535L7.83335 13.443V2.9357L4.8856 5.88345C4.74783 6.02118 4.56517 6.10482 4.37089 6.11914C4.17661 6.13345 3.98366 6.07749 3.82719 5.96145L3.73619 5.88345C3.59846 5.74568 3.51482 5.56302 3.5005 5.36874C3.48619 5.17446 3.54215 4.98151 3.65819 4.82504L3.73619 4.73404L8.06735 0.405036L3.73619 4.73404Z" fill="#3F4752"/>
</svg>
