<svg width="13" height="12" viewBox="0 0 13 12" fill="none" xmlns="http://www.w3.org/2000/svg">
<path fill-rule="evenodd" clip-rule="evenodd" d="M0 6C0 5.80109 0.0790178 5.61032 0.21967 5.46967C0.360322 5.32902 0.551088 5.25 0.75 5.25H9.4395L6.219 2.031C6.07817 1.89017 5.99905 1.69917 5.99905 1.5C5.99905 1.30084 6.07817 1.10983 6.219 0.969002C6.35983 0.828172 6.55084 0.749054 6.75 0.749054C6.94916 0.749054 7.14017 0.828172 7.281 0.969002L11.781 5.469C11.8508 5.53867 11.9063 5.62143 11.9441 5.71255C11.9819 5.80367 12.0013 5.90135 12.0013 6C12.0013 6.09865 11.9819 6.19633 11.9441 6.28745C11.9063 6.37857 11.8508 6.46133 11.781 6.531L7.281 11.031C7.14017 11.1718 6.94916 11.2509 6.75 11.2509C6.55084 11.2509 6.35983 11.1718 6.219 11.031C6.07817 10.8902 5.99905 10.6992 5.99905 10.5C5.99905 10.3008 6.07817 10.1098 6.219 9.969L9.4395 6.75H0.75C0.551088 6.75 0.360322 6.67098 0.21967 6.53033C0.0790178 6.38968 0 6.19891 0 6Z" fill="#294F56"/>
</svg>
