<svg width="16" height="17" viewBox="0 0 16 17" fill="none" xmlns="http://www.w3.org/2000/svg">
<path d="M8.48179 1.30599L9.93 6.07426V6.51001H10.43H14.88C15.361 6.51001 15.5665 7.12553 15.1683 7.41394C15.168 7.41414 15.1677 7.41434 15.1674 7.41454L11.5294 10.0131L11.2354 10.2231L11.3424 10.5681L12.7724 15.1781L12.7727 15.1789C12.9168 15.6412 12.3785 16.0177 11.9941 15.7231L11.9929 15.7222L8.30293 12.9122L8.00054 12.6819L7.69776 12.9117L4.00776 15.7117L4.00589 15.7131C3.62148 16.0077 3.08317 15.6312 3.22733 15.1689L3.22755 15.1681L4.65755 10.5581L4.76458 10.2131L4.47062 10.0031L0.830622 7.40314L0.829153 7.4021C0.43963 7.12598 0.63379 6.50001 1.12 6.50001H5.57H5.93996L6.04815 6.14622L7.52815 1.30622L7.52817 1.30623L7.5296 1.30137C7.66621 0.837893 8.33333 0.819681 8.48179 1.30599Z" stroke="#3F4752"/>
</svg>
